<?xml version="1.0" encoding="UTF-8" standalone="no"?>
<svg
   xmlns:dc="http://purl.org/dc/elements/1.1/"
   xmlns:cc="http://creativecommons.org/ns#"
   xmlns:rdf="http://www.w3.org/1999/02/22-rdf-syntax-ns#"
   xmlns:svg="http://www.w3.org/2000/svg"
   xmlns="http://www.w3.org/2000/svg"
   xmlns:sodipodi="http://sodipodi.sourceforge.net/DTD/sodipodi-0.dtd"
   xmlns:inkscape="http://www.inkscape.org/namespaces/inkscape"
   version="1.1"
   id="Capa_1"
   x="0px"
   y="0px"
   viewBox="0 0 512 512"
   style="enable-background:new 0 0 512 512;"
   xml:space="preserve"
   sodipodi:docname="facebookbialy.svg"
   inkscape:version="1.0.1 (3bc2e813f5, 2020-09-07)"><metadata
   id="metadata47"><rdf:RDF><cc:Work
       rdf:about=""><dc:format>image/svg+xml</dc:format><dc:type
         rdf:resource="http://purl.org/dc/dcmitype/StillImage" /><dc:title></dc:title></cc:Work></rdf:RDF></metadata><defs
   id="defs45" /><sodipodi:namedview
   pagecolor="#ffffff"
   bordercolor="#666666"
   borderopacity="1"
   objecttolerance="10"
   gridtolerance="10"
   guidetolerance="10"
   inkscape:pageopacity="0"
   inkscape:pageshadow="2"
   inkscape:window-width="1920"
   inkscape:window-height="1017"
   id="namedview43"
   showgrid="false"
   inkscape:zoom="2.1015625"
   inkscape:cx="228.44887"
   inkscape:cy="187.61788"
   inkscape:window-x="-8"
   inkscape:window-y="-8"
   inkscape:window-maximized="1"
   inkscape:current-layer="Capa_1" />
<path
   style="fill:#0064ff;fill-opacity:1;stroke:#000000;stroke-width:1px;stroke-linecap:butt;stroke-linejoin:miter;stroke-opacity:1"
   d="m 321.00672,235.43388 c -0.16824,0.22431 -0.40057,0.4126 -0.5047,0.67293 -0.38419,0.96046 -0.48881,1.5406 0,2.35527 0.0645,0.10753 0.0796,0.2478 0.16823,0.33647 0.0595,0.0595 0,-0.16823 0,-0.25235 0,-0.16823 0,-0.33647 0,-0.5047 0,-0.7425 -0.18176,-1.06052 -0.25235,-1.76645 -0.0112,-0.1116 0,-0.44863 0,-0.33647 0,1.12156 0,2.24311 0,3.36467 0,0.47666 0,0.95332 0,1.42999 0,0.0561 0,-0.11216 0,-0.16824 0,-0.70097 0,-1.40194 0,-2.10292 0,-1.12155 0,-2.24311 0,-3.36467 0,-0.028 0,0.0561 0,0.0841 0,0.22431 0,0.44862 0,0.67293 0,0.59886 -0.1992,2.18266 0.0841,2.60762 0.0641,0.0962 0.0706,-0.22165 0.0841,-0.33646 0.0914,-0.7769 0.16824,-1.41154 0.16824,-2.18704 0,-0.0561 0,0.11216 0,0.16823 0,2.84141 0.0876,0.72933 -0.0841,2.10292 -0.0104,0.0835 0,0.33647 0,0.25235 0,-0.53264 0,-2.58311 0,-1.76645 0,0.68635 -0.0248,0.72221 0.0841,1.42999 0.0301,0.19596 0.0841,0.78708 0.0841,0.58881 0,-0.98136 0,-1.96272 0,-2.94408 0,-0.028 0.002,0.0562 0,0.0841 -0.0257,0.30863 -0.0543,0.61703 -0.0841,0.92529 -0.47591,4.91768 0.14396,-1.00777 -0.42059,2.94409 -0.0238,0.16654 -0.11896,0.62365 0,0.5047 0.0547,-0.0547 0.16713,-1.55177 0.16824,-1.59822 0.02,-0.84093 0,-1.68234 0,-2.52351 0,-0.25235 0,-0.5047 0,-0.75705 0,-0.0561 0.0251,-0.21839 0,-0.16823 -0.0843,0.16862 -0.14991,0.83975 -0.16824,0.92528 -0.5115,2.38703 -0.42058,1.00637 -0.42058,2.94409 0,0.11216 0,0.44862 0,0.33647 0,-0.47666 0,-0.95333 0,-1.42999 0,-0.25235 -0.0357,-0.50723 0,-0.75705 0.009,-0.0621 0.0772,0.10592 0.0841,0.16823 0.0899,0.80864 -0.0234,1.63292 0.0841,2.43939 0.0134,0.10021 0.20714,0.25866 0.25235,0.16824 0.50833,-1.01665 0.25235,-1.46462 0.25235,-2.85998 0,-0.56077 0,-1.12155 0,-1.68233"
   id="path1135" /><path
   id="path49"
   style="opacity:1;fill:#0064ff;fill-opacity:1;fill-rule:evenodd;stroke-width:0.97066"
   d="M 254.15625,3.6757812 A 251.51416,251.88036 0 0 0 3.1191406,255.55664 251.51416,251.88036 0 0 0 254.63281,507.4375 251.51416,251.88036 0 0 0 506.14648,255.55664 251.51416,251.88036 0 0 0 254.63281,3.6757812 a 251.51416,251.88036 0 0 0 -0.47656,0 z M 299.47656,126.66602 c 3.09047,-0.17115 8.05216,7.14891 10.77149,12.26757 1.42223,1.21828 1.78985,2.25701 1.8789,4.15625 0.0547,0.0757 0.11767,0.1597 0.17188,0.23438 1.19542,1.64683 0.5905,5.0825 0.35547,7.08594 -0.052,0.25388 -0.10346,0.50799 -0.15625,0.76172 -0.005,0.0395 -0.003,0.0797 -0.008,0.11914 -0.0201,0.16682 -0.14799,0.65541 -0.11718,0.49023 0.038,-0.2038 0.0828,-0.4064 0.125,-0.60937 0.0358,-0.31043 0.0684,-0.62354 0.0605,-0.93555 -0.0322,-1.2045 -0.16161,-1.80495 -0.39843,-2.46485 -0.004,0.35464 -0.008,0.71331 -0.0137,1.02735 0.14474,-0.002 0.003,0.2771 -0.006,0.42969 -0.002,0.0492 7.9e-4,0.13279 -0.002,0.17968 -0.004,1.18148 0.007,1.98728 0.0195,3.1875 0.30909,2.23562 0.26623,4.24984 -0.0664,6.00977 -0.0685,0.44537 -0.15959,0.87003 -0.29688,1.25976 -0.593,2.07155 -1.60787,3.72855 -2.89453,4.92383 -0.0776,0.18577 -0.15758,0.3701 -0.24805,0.55078 -0.35825,0.7153 -0.90024,1.30654 -1.47656,1.875 0.0734,-0.062 0.14378,-0.12809 0.21875,-0.1875 0.11708,-0.0928 -0.18483,0.23425 -0.27734,0.35157 -0.47301,0.43988 -0.94495,0.88042 -1.41797,1.32031 0.45625,-0.51887 0.97882,-0.99346 1.47656,-1.48438 -1.51455,1.27771 -2.73566,3.04832 -4.56836,3.76368 -1.07587,0.7511 -2.16718,1.47379 -3.38672,1.92968 -0.55179,0.20627 -1.13375,0.26954 -1.72461,0.30078 -0.0549,0.009 -0.11797,0.0166 -0.17578,0.0254 -0.73484,0.42076 -0.14336,0.10944 -2.79687,0.43164 -0.47449,0.0576 0.95394,-0.0796 1.43164,-0.0957 0.0396,-0.001 -0.0705,0.0438 -0.10938,0.0508 -3.31701,0.60669 -2.1101,0.48532 -4.76172,0.57032 -0.9071,0.42459 -1.93599,-0.36363 -2.85742,-0.11914 -0.14912,0.0396 0.5007,0.15601 0.38477,0.25781 -0.26836,0.23563 -0.6801,0.22304 -1.02735,0.30664 -0.42759,0.10292 -0.60403,0.13412 -0.92187,0.20703 0.61799,0.37873 1.63296,0.60493 3.07422,0.66992 0.81284,0.005 1.62522,0.0128 2.4375,-0.0195 -0.0774,0.004 -0.15499,0.008 -0.23242,0.0117 -0.84468,0.0443 -1.5542,0.0348 -2.20508,0.008 -1.26485,-0.008 -2.53056,-0.0302 -3.79492,-0.0332 -0.90432,-0.0148 -1.80223,0.0211 -2.70313,0.0547 -0.11684,0.0211 -0.15983,0.0293 -0.28906,0.0527 -2.09928,0.10214 -2.74591,0.17452 -3.54102,0.1582 -1.84864,0.60843 -2.42304,0.72207 -4.19531,1.13672 -0.9857,0.44652 -2.09894,0.28105 -3.12305,0.53321 -0.004,0.007 -0.007,0.0123 -0.0117,0.0195 0.17681,-0.005 0.3525,-0.009 0.5293,-0.0137 0.002,0.0152 0.0185,0.0399 0.006,0.0469 -0.14609,0.0709 -0.45847,0.19945 -0.73828,0.32031 -0.762,1.26682 -1.58839,2.55527 -2.38477,3.76172 -0.0541,0.7893 -0.14532,1.89207 -0.24218,3.07031 1.48366,1.22411 2.57422,3.52184 2.57422,6.90235 v 11.61718 c 0.38619,0.30114 0.75148,0.61737 0.96679,1.04493 1.41714,2.81424 2.10189,3.982 2.4336,4.81836 0.005,0.0118 0.0319,0.0446 0.041,0.0605 0.0231,0.006 0.0632,0.0177 0.082,0.0215 1.37799,0.27885 2.71442,0.63632 4.0625,1.02539 1.2002,0.23487 2.26967,0.81412 3.3418,1.37305 1.38303,-0.049 2.57047,-0.0846 4.16016,0.22851 1.2176,0.2398 2.42427,0.54039 3.62304,0.86133 4.53307,1.21364 0.45411,0.33274 3.15235,0.89258 0.14647,0.02 0.2947,0.0286 0.43945,0.0586 0.49509,0.10254 0.98953,0.20934 1.47852,0.33789 0.12691,0.0334 0.36035,0.0952 0.57031,0.15039 0.50674,-0.34962 1.02063,-0.6867 1.55273,-0.99805 0.54743,-0.32031 1.17795,-0.28066 1.83008,-0.14453 0.31839,-0.24619 0.46123,-0.35422 0.80664,-0.62304 1.58227,0.0127 3.16381,0.0244 4.7461,0.0371 -0.0866,-0.0228 -0.24247,0.019 -0.25977,-0.0664 -0.2553,-0.01 -0.60897,-0.006 -0.52539,-0.01 1.6438,-0.0712 0.63075,-0.0676 1.72851,-0.0586 2.36855,0.97261 4.81791,1.76775 7.10547,2.91797 0.25146,0.12644 1.13555,1.1669 1.53907,1.63476 3.16259,3.66696 2.8403,5.77853 2.7207,9.50977 0.0701,-0.2544 0.0388,-0.0655 -0.0215,0.25195 0.0597,0.48516 -0.001,2.11935 0.008,2.76758 0.0282,2.04893 0.0251,3.16345 -0.27149,4.45508 1.46477,3.97179 1.86779,7.31568 -1.76953,5.9375 -0.19039,0.37164 -0.46475,0.88244 -0.94336,1.77734 -0.32706,0.41229 -0.63801,0.7991 -0.94336,1.16602 -0.0266,0.33633 -0.0759,0.67333 -0.17773,1.01367 -0.0886,0.29617 -0.20421,0.58274 -0.32617,0.86719 l -0.18555,0.74219 c -0.18114,0.34026 -0.65994,1.38878 -0.54297,1.02148 0.19287,-0.60578 0.47771,-1.17871 0.72852,-1.76367 l 0.45703,-1.82422 c -0.92112,1.10235 -1.78855,1.99672 -2.82031,2.69336 -0.12329,0.1396 -0.21996,0.19611 -0.33008,0.19726 -1.01053,0.62067 -2.1796,1.07515 -3.72461,1.34571 -0.56879,0.30435 -1.19633,0.65259 -1.96289,1.11133 -0.0418,0.025 -0.0361,0.0302 -0.0625,0.0488 -0.0246,0.03 -0.0496,0.0599 -0.0742,0.0899 0.1642,0.0759 2.41655,-0.71963 3.27539,-1.02344 0.38529,-0.1363 0.68346,-0.46075 1.06641,-0.60351 0.23608,-0.088 -0.41133,0.29025 -0.61719,0.43554 -0.21488,0.15165 -0.42969,0.30337 -0.64453,0.45508 -0.94502,0.48047 -1.80177,1.2082 -2.83594,1.44141 -0.31358,0.0707 -0.63034,0.11754 -0.94922,0.15429 -0.89778,1.09304 -1.79558,2.18627 -2.69336,3.2793 1.67574,0.17249 3.3528,0.4263 5.01953,0.26172 0.17789,-0.0176 0.41137,-0.10808 0.65625,-0.22266 0.47285,-0.26472 1.0246,-0.62142 1.83008,-1.18554 0.63365,-0.44378 -0.7704,0.68971 -1.83008,1.18554 -1.09046,0.61049 -1.71981,0.67218 -3.76953,1.24024 -2.02291,0.45801 -4.03335,0.95803 -6.06836,1.36328 -2.40458,0.38498 -4.79848,0.19646 -7.20703,0.0957 -0.38589,-0.0162 -0.77214,-0.0355 -1.1582,-0.0469 -0.15625,-0.005 -0.62478,0.008 -0.46875,-0.002 0.27737,-0.0167 0.55617,-0.0125 0.83398,-0.0195 -1.12059,0.0152 -2.24231,0.0251 -3.36328,0.0391 -0.58904,0.27161 -1.19643,0.5035 -1.8125,0.71094 -1.56155,1.18926 -3.46279,1.85284 -5.3418,2.36133 v 5.77148 c 0,0.59479 0.0354,1.19142 0,1.78516 -0.0661,1.10885 -0.20332,2.21218 -0.30468,3.31836 -0.12139,0.69005 -0.28084,1.37476 -0.36524,2.07031 -0.0417,0.34399 0.0582,0.69096 0.0742,1.03711 0.0576,1.2495 0.11498,2.47342 0.14648,3.72852 0.002,1.58454 0.006,1.23751 -0.0137,2.96093 -0.004,0.34328 -0.0638,0.69135 -0.0156,1.03126 0.0294,-0.17244 0.0585,-0.34514 0.0879,-0.51758 0.0108,-0.0185 0.0282,-0.0774 0.0332,-0.0566 0.11613,0.50337 0.20291,1.01307 0.30469,1.51953 0.30492,1.71395 0.11145,3.43905 0.041,5.16015 -0.011,0.26995 -0.0184,0.54042 -0.0234,0.81055 -0.0108,-0.26838 -0.0225,-0.5363 -0.0332,-0.80469 -0.21827,-5.46836 -1.67216,-6.54487 -3.72265,-5.52343 0.004,0.48783 0.009,0.97429 -0.0137,1.47265 10e-4,3.45907 -0.003,6.91789 -0.002,10.37696 0.004,1.55176 0.0282,3.10656 0.0117,4.6582 -0.007,0.6219 -0.0226,1.24343 -0.0351,1.86523 0.006,-0.0217 -9e-4,-0.0478 0.0137,-0.0664 0.0757,-0.0994 -0.0106,0.2502 -0.0156,0.375 -0.12129,5.12486 0.42935,10.25072 0.0391,15.37304 -0.3331,2.23927 -0.24445,1.83409 -0.82031,4.53711 -0.0594,0.27876 -0.19576,0.53781 -0.25586,0.81641 -0.10936,0.50684 -0.12537,1.03066 -0.23633,1.53711 0.0435,4.42926 0.13019,0.78348 -0.92578,6.73633 0.2069,0.42172 1.5e-4,0.0333 0.21289,-0.61329 0.0496,-0.15062 0.008,0.31609 0.0117,0.47461 -0.0551,0.16587 -0.14414,0.47572 -0.22656,0.75196 0.0663,0.69879 0.1396,1.39837 0.10352,2.09765 -0.1067,2.06898 -0.56138,4.07229 -1.20704,6.01954 -10e-6,0.4082 0,0.8164 0,1.2246 1.4e-4,2.50251 0.002,5.0053 0,7.50782 -0.004,2.92171 0.007,5.8439 0.006,8.76562 -0.0137,1.63412 -0.0573,3.26863 -0.004,4.90235 0.12787,2.16008 0.0897,4.45262 -0.39649,6.61523 0.74087,0.96683 1.3986,1.98127 1.86524,3.10547 1.09434,2.63642 -0.13275,4.98283 -1.64258,7.04687 -0.2803,0.57065 -0.73775,1.2104 -1.73047,2.58008 -0.0836,0.11532 -0.26976,0.3021 -0.43555,0.46485 -0.0598,0.26361 -0.12018,0.5276 -0.19336,0.78515 -0.7781,2.73861 -6.7027,3.16585 -9.29296,2.95313 -2.01734,-0.16566 -2.7893,-0.44706 -4.52735,-0.9375 -1.84023,-0.54652 -3.65841,-1.14732 -5.49219,-1.71289 -1.05878,-0.35259 -4.09298,-1.36222 -4.79882,-1.94532 -0.36421,-0.30089 -0.71132,-0.62149 -1.0586,-0.9414 -0.0688,-0.0159 -0.14687,-0.0281 -0.21289,-0.0449 -0.85513,0.84098 -1.70241,1.68843 -2.51953,2.56054 -4.48133,-0.0316 -1.90875,0.18757 -8.64648,-1.78125 -3.99385,-3.65691 -4.61023,-3.22523 -5.35547,-10.1875 -0.065,-0.60759 0.0949,-1.19892 0.29492,-1.78711 -0.0103,-0.0771 -0.0166,-0.15497 -0.0254,-0.23242 -0.0154,0.0349 -0.032,0.0975 -0.0469,0.12695 -0.11951,0.23674 -0.0471,-0.2885 -0.0137,-0.69726 -0.0725,-1.02864 -0.0411,-2.07388 -0.0234,-3.0957 8.6e-4,-1.95476 -4e-4,-3.91038 -0.002,-5.86524 -0.0372,-0.0949 -0.0741,-0.19024 -0.11133,-0.28515 -0.26102,-0.66607 -0.60477,-1.30528 -0.7832,-1.99805 -0.34287,-1.33123 -0.54964,-2.69212 -0.80664,-4.04297 -0.0102,-0.0353 -0.0182,-0.0517 -0.0254,-0.0781 -0.034,-0.12425 -0.0841,-0.50715 -0.0586,-0.38085 0.0308,0.1524 0.0549,0.30618 0.084,0.45898 0.091,0.31378 0.28321,0.93148 0.23242,0.69336 -0.1316,-0.61647 -0.32327,-1.2187 -0.48437,-1.82813 -0.14155,-1.08161 -0.31178,-2.16102 -0.42383,-3.24609 -0.0297,-0.28759 2.4e-4,-0.57807 0,-0.86719 -0.001,-1.41163 -0.0114,-2.82273 -0.01,-4.23437 0.0148,-2.26483 0.0897,-4.52961 -0.0488,-6.79297 -0.0186,-0.78639 -0.0864,-2.92059 -0.0586,-4.18164 -0.34398,-1.30588 -0.8112,-2.58772 -1.00391,-3.92383 -0.19921,-1.38112 -0.0624,-2.64476 0.0859,-3.95508 -0.44618,-1.97531 -0.5019,-3.28711 -0.46289,-5.51172 0.16644,-1.95296 0.0757,-3.91244 0.0625,-5.86914 -0.003,-2.52644 0.01,-5.05363 0.008,-7.58008 -0.001,-1.21185 -0.002,-2.11717 -0.002,-3.68554 0.10167,-0.97219 -0.11924,-1.98505 0,-2.95508 0.13441,-1.09368 0.293,-2.18326 0.43945,-3.27539 0.0709,-0.3202 0.14308,-0.6405 0.21289,-0.96094 0.0195,-0.1778 0.0145,-0.21393 0.0293,-0.32031 0.004,-0.0258 0.0596,-0.0822 0.0547,-0.0566 -0.0239,0.12646 -0.0566,0.25122 -0.084,0.37695 -0.0384,0.35122 -0.0958,0.84129 -0.0566,0.63281 0.131,-0.69836 0.22366,-1.40209 0.32618,-2.10546 -0.17904,-0.15148 0.0916,-0.8111 0.0801,-1.15235 -0.0837,-2.47559 -0.18624,-3.07196 0.97266,-6.3457 -0.11712,-1.60901 -0.1307,-3.17528 -0.0996,-4.78711 0.0693,-1.3021 0.0304,-2.6053 0.0254,-3.9082 0.0213,-0.4601 -0.0348,-0.87715 -0.11914,-1.29493 -0.0768,-0.21994 -0.15225,-0.43607 -0.22851,-0.65429 0.0107,-0.0295 0.0209,-0.0642 0.0312,-0.0879 -0.089,-0.30674 -0.17623,-0.61386 -0.26757,-0.91993 -0.003,0.0543 -0.003,0.0563 -0.006,0.11133 -0.005,0.0918 -0.10933,-0.15188 -0.14063,-0.23828 -0.35477,-0.97854 -0.77363,-1.94079 -1.01562,-2.95312 -0.0431,-0.18012 -0.0657,-0.36477 -0.10156,-0.54688 -0.30136,-0.19745 -0.61943,-0.37673 -0.87696,-0.62695 -0.52903,-0.514 -1.15369,-0.97632 -1.70898,-1.48438 -1.07024,-0.46499 -2.066,-1.02313 -3.07032,-1.65429 -0.61446,-0.2572 -1.66452,-0.72134 -2,-0.94922 -0.32731,-0.22234 -0.8321,-0.57685 -1.35742,-0.95508 -0.42959,0.0501 -0.75534,-0.0113 -1.4375,-0.25391 -0.80549,-0.22906 -2.02753,-0.66789 -1.53906,-0.51562 0.87764,0.27363 1.19273,0.39247 1.53906,0.51562 0.46323,0.13174 0.8225,0.21169 0.55078,0.0254 -0.77136,-0.52895 -1.55718,-1.03462 -2.3496,-1.53125 -0.90039,-0.15963 -1.80859,-0.32624 -1.82227,-0.33007 -0.0168,-0.005 -0.034,-0.0125 -0.0508,-0.0176 0.60418,0.83999 -2.92199,-0.50577 -3.82422,-1.43946 -0.31708,-0.32815 -0.58742,-0.69773 -0.83789,-1.08398 -0.31099,-0.044 -0.62305,-0.0841 -0.93164,-0.13672 -0.3485,-0.70473 -1.01317,-1.77675 -1.69336,-2.86523 -0.43888,-0.38238 -0.8599,-0.78178 -1.23047,-1.23438 -0.38782,-0.47366 -0.75893,-1.45215 -1.00781,-2.40625 -0.007,-0.007 -0.0129,-0.0127 -0.0195,-0.0195 -0.18595,-0.19171 -0.24473,-0.81724 -0.26758,-1.52734 -0.004,-0.0531 -0.002,-0.0912 -0.004,-0.14063 -0.027,-1.25838 0.0873,-2.8063 0.12696,-3.36133 -0.003,0.0164 -0.007,0.0654 -0.008,0.0488 -0.0579,-0.81796 -0.0313,-1.64549 -0.0273,-2.46484 0.008,-0.65072 0.005,-1.30239 0.004,-1.95313 7e-5,-0.6553 1.4e-4,-1.30954 0,-1.96484 -1.3e-4,-0.91214 -1e-5,-1.82419 0,-2.73633 0,-0.93653 -1e-5,-1.87402 0,-2.81055 v -2.08398 -1.86719 c 0.11107,-2.34532 1.73901,-7.22833 4.47852,-8.94336 1.2504,-0.78281 2.59147,-1.41458 3.93164,-2.03125 0.4428,-0.20376 0.91988,-0.33997 1.40039,-0.42187 1.22831,-0.20933 2.47395,-0.2995 3.71094,-0.44922 1.52165,0.0422 1.80861,0.0103 3.1582,0.16601 0.17608,0.0203 0.35057,0.056 0.52539,0.0879 -0.0564,-0.0191 -0.0838,-0.0444 -0.0508,-0.0762 0.16962,-0.16331 0.46966,-0.009 0.70508,-0.0117 0.53537,-0.007 1.07203,-0.0135 1.60742,-0.0195 0.17408,-0.002 0.34905,0.005 0.52344,0.008 0.004,-0.0154 -6.8e-4,-0.0316 0.006,-0.0469 0.27055,-0.93699 0.57008,-1.86513 0.87695,-2.79101 0.015,-0.29314 0.15267,-0.65915 0.3125,-1.02149 0.23922,-1.38949 0.64017,-2.39864 1.20117,-3.0918 3e-5,-0.22363 0.006,-0.44189 0.006,-0.67382 0.0849,-0.70111 0.1827,-1.39986 0.28516,-2.09766 -0.04,-0.16258 -0.0877,-0.32311 -0.125,-0.48633 -0.13119,-0.57439 -0.22631,-1.15623 -0.33984,-1.73437 -0.058,-0.97437 -0.11638,-1.94943 -0.17383,-2.92383 -0.0975,-0.40536 -0.19414,-0.81128 -0.29102,-1.2168 -0.10698,-1.15336 -0.24691,-2.303 -0.32031,-3.45898 -0.002,-0.0351 0.003,-0.0704 0.002,-0.10547 -0.61398,-0.95085 -1.1751,-1.97725 -1.3789,-2.91016 -1.54255,-2.93007 -2.16153,-6.24115 -1.875,-9.54101 -0.0262,-0.0605 -0.0932,-0.55711 -0.25782,-2.25977 -0.27346,-2.82825 -0.13288,-2.78779 -0.30078,-4.85547 -0.12724,-1.15799 -0.45309,-3.914 -0.37109,-4.66015 0.20585,-1.87355 0.72231,-3.69995 1.16016,-5.53321 0.0533,-0.22336 0.21089,-0.40938 0.30859,-0.61718 0.7169,-1.52393 0.88313,-2.02573 1.65039,-3.89649 0.72248,-1.3094 1.3875,-2.65204 2.16797,-3.92773 0.59093,-0.96588 1.28536,-1.86421 1.9414,-2.78711 1.5501,-2.18064 3.19055,-4.27029 4.70313,-6.47071 1.59147,-1.59195 -1.53035,1.61072 2.13867,-3.57421 1.26351,-1.78556 3.89948,-4.49238 5.92383,-5.42579 2.31284,-1.06643 4.79031,-1.75403 7.24805,-2.42187 0.53572,-0.14557 1.10892,0 1.66406,0 l 0.002,0.002 c 2.76935,0 5.1691,0.37236 7.21485,1.00782 1.39115,-0.54195 2.80954,-0.95871 4.46875,-1.21094 1.0337,-0.15711 2.09539,0.0434 3.13671,-0.0508 0.11129,-0.0101 -0.36037,-0.15299 -0.26367,-0.20899 0.30321,-0.17538 0.68379,-0.15482 1.02539,-0.23242 -0.26183,0.0299 0.61831,-0.0988 1.00586,-0.16406 10e-4,-5.6e-4 0.002,5.6e-4 0.004,0 0.52953,-0.0891 0.73527,-0.13829 1.36914,-0.22266 0.62485,-0.30012 1.25016,-0.60027 1.875,-0.90039 -0.048,-0.0168 -0.18573,-0.019 -0.14453,-0.0488 0.13546,-0.098 0.30777,-0.13189 0.46679,-0.18359 0.4068,-0.13226 0.81875,-0.24638 1.22852,-0.36914 0.1037,-0.023 0.29937,-0.0752 0.46289,-0.11719 0.39869,-0.17705 0.8037,-0.33831 1.22266,-0.46094 1.32504,-0.38783 2.53219,-0.26167 3.81836,-0.16797 0.94206,0.0522 -0.16857,0.007 1.8457,-0.006 1.6063,0.005 3.21204,0.007 4.81836,0.006 1.23445,-0.001 2.46867,-0.002 3.70312,-0.002 1.79476,-1e-5 3.59001,2e-5 5.38477,0 0.67443,-1e-5 1.09716,0.008 1.59766,0.0117 0.0336,2.4e-4 0.0745,-3e-4 0.10742,0 0.35553,-0.0113 0.91611,-0.006 1.37109,-0.006 -3.87498,-4.69956 -0.59179,-2.83503 3.28125,0.0156 0.22656,0.009 0.43562,0.0239 0.64063,0.041 1.52002,-0.78256 3.51704,-1.75317 6.04883,-3 -0.0781,-0.0493 -0.10434,-0.0651 -0.1836,-0.11523 -1.23487,-0.78106 -2.84972,0.63898 -4.27539,0.95898 0.0625,-5.17148 1.14035,-7.17333 2.70117,-7.25976 z m 1.75782,6.41601 c 3.36236,2.12248 5.65297,3.49727 7.25976,4.57617 -0.47898,-1.17001 -1.02106,-2.29556 -1.8418,-3.21875 -1.09757,-1.23456 -3.16182,-2.47051 -4.64257,-1.73828 -0.29527,0.14601 -0.49439,0.24247 -0.77539,0.38086 z m 7.25976,4.57617 c 0.19573,0.47813 0.3804,0.96443 0.56836,1.44727 1.10319,1.24717 2.09008,2.63282 3.00977,3.9082 -0.23063,-0.8382 -0.88594,-2.31388 -1.82422,-4.08008 -0.44655,-0.38247 -1.0752,-0.8196 -1.75391,-1.27539 z m -46.36133,0.83399 c -0.17417,0.0678 -0.35361,0.12684 -0.52929,0.1914 0.0213,-0.004 0.043,-0.006 0.0645,-0.01 0.1712,-0.0651 0.26732,-0.10559 0.46484,-0.18164 z m -0.46484,0.18164 c -0.11049,0.042 -0.20281,0.0778 -0.30078,0.11523 -0.0427,0.0214 -0.0902,0.0331 -0.13086,0.0586 -0.0228,0.0143 -0.0761,0.0491 -0.10156,0.0645 0.67285,-0.14441 1.34357,-0.30192 2.01171,-0.46875 0.004,-0.002 0.008,-0.004 0.0117,-0.006 -0.49765,0.0743 -0.99725,0.13827 -1.49023,0.23633 z m -0.30078,0.11523 c 0.0771,-0.0386 0.15482,-0.0755 0.23633,-0.10547 -0.0368,0.008 -0.0747,0.009 -0.11133,0.0176 -0.27312,0.0612 -1.05587,0.36455 -0.78125,0.31055 0.0675,-0.0133 0.13377,-0.033 0.20117,-0.0469 0.12485,-0.049 0.3067,-0.11915 0.45508,-0.17578 z m -40.79102,75.23047 c -0.009,0.0542 -0.0186,0.10669 -0.0273,0.16211 0.0498,-0.14898 0.0987,-0.29828 0.14844,-0.44726 -0.0443,0.0958 -0.0773,0.18583 -0.1211,0.28515 z m -0.0273,0.16211 c -0.0957,0.28626 -0.19021,0.5729 -0.28516,0.85938 -0.009,0.18339 0.0337,0.33133 0.15039,0.42968 0.0269,-0.36435 0.0472,-0.73022 0.0996,-1.09179 0.01,-0.0693 0.0243,-0.12972 0.0352,-0.19727 z m -16.09961,42.91211 c 0.24027,0.034 0.47933,0.0734 0.7207,0.10352 -0.19913,-0.36312 -0.394,-0.72949 -0.58398,-1.09961 -0.35697,-0.23014 -0.71141,-0.46124 -1.06055,-0.69922 0.27906,0.5891 0.57814,1.16221 0.92383,1.69531 z m 0.13672,-0.99609 c 0.51697,0.33328 1.03165,0.66808 1.54101,1.00976 -0.0424,-0.0554 -0.0812,-0.11386 -0.12304,-0.16992 -0.39358,-0.23824 -0.79062,-0.47073 -1.18164,-0.71289 -0.40136,-1.05018 -0.39719,-1.0074 -0.64258,-1.625 -0.1966,-0.15592 -0.40405,-0.3311 -0.60547,-0.49609 0.33398,0.66709 0.6717,1.33167 1.01172,1.99414 z m 1.41797,0.83984 c 0.2394,0.14491 0.47881,0.28953 0.71875,0.43359 0.52375,0.0541 1.04632,0.11084 1.57031,0.16407 -0.9776,-0.62691 -2.17831,-1.44571 -3.54688,-2.49805 0.37589,0.63083 0.79034,1.27397 1.25782,1.90039 z m 2.28906,0.59766 c 2.45007,1.57116 3.23749,1.87843 0.98437,1.38086 0.57169,0.34567 1.14116,0.69418 1.70704,1.04882 0.45222,0.0802 0.7118,0.12264 1.27343,0.21485 -0.5438,-0.36573 -1.26143,-1.02233 -0.87304,-0.83008 0.37977,0.18798 0.73231,0.42731 1.08007,0.67383 10e-4,4.5e-4 0.003,4e-4 0.004,0.002 0.24195,0.0795 0.47294,0.18792 0.70117,0.30078 0.25783,0.0399 0.49153,0.0735 0.75196,0.11133 -0.0759,-0.11645 -0.1458,-0.23138 -0.21876,-0.34766 -1.06451,-0.5549 -2.07208,-1.17972 -2.89453,-2.03711 -0.0599,-0.0625 -0.12242,-0.16944 -0.18359,-0.24804 -0.77311,-0.10527 -1.5516,-0.19026 -2.33203,-0.26953 z m 5.41015,2.55468 c 0.17107,0.0892 0.34199,0.1777 0.51563,0.26368 -0.38479,-0.69795 -0.75872,-1.40451 -1.13086,-2.11329 -0.16774,-0.0379 -0.33513,-0.0772 -0.50391,-0.11132 0.32562,0.64257 0.70406,1.29897 1.11914,1.96093 z m -0.61523,-1.84961 c 0.9013,0.20347 1.78864,0.45481 2.65039,0.79883 1.36063,0.54319 2.10989,0.92153 2.48828,1.19727 -0.36717,-1.14967 -0.6977,-2.30392 -0.92187,-3.29102 -2.12247,-0.86495 -4.27606,-1.6913 -6.31446,-2.66406 0.0919,0.27844 0.19863,0.57365 0.3086,0.875 0.65902,0.97399 1.23205,2.02293 1.78906,3.08398 z m 5.13867,1.9961 c 0.0524,0.16402 0.10146,0.33087 0.1543,0.49219 0.23268,-0.083 0.18152,-0.24747 -0.1543,-0.49219 z m 0.1543,0.49219 c -0.49872,0.17792 -2.09941,0.0275 -3.81641,-0.20508 0.74372,0.35978 1.49408,0.71355 2.22461,1.09179 0.50748,-4.2e-4 1.2029,0.0149 1.91406,0.0312 -0.11392,-0.33072 -0.2058,-0.56245 -0.32226,-0.91796 z m 0.32226,0.91796 c 0.0238,0.069 0.0429,0.11998 0.0664,0.1875 0.0337,-0.002 0.0615,-0.004 0.0957,-0.006 0.25173,-0.0542 1.01323,-0.15606 0.75586,-0.16406 -0.37435,-0.012 -0.59217,-0.01 -0.91797,-0.0176 z m 0.0664,0.1875 c -0.52469,0.0293 -0.99493,0.0522 -1.45117,0.0586 0.034,0.0189 0.0697,0.0356 0.10352,0.0547 0.54751,0.18294 1.09033,0.37498 1.60742,0.62304 -0.0856,-0.23632 -0.16756,-0.47131 -0.25977,-0.73633 z m 0.25977,0.73633 c 0.0543,0.14996 0.11554,0.33131 0.16601,0.4668 0.67619,0.17089 1.11178,0.24468 0.59571,-0.0644 -0.24753,-0.14808 -0.50307,-0.27827 -0.76172,-0.40235 z m 0.16601,0.4668 c -0.0901,-0.0228 -0.15998,-0.0368 -0.26172,-0.0644 0.11311,0.0896 0.22729,0.17817 0.33594,0.27343 -0.0217,-0.0574 -0.0516,-0.14833 -0.0742,-0.20898 z m 0.0742,0.20898 c 0.0393,0.10416 0.0988,0.28632 0.13477,0.37891 0.0255,0.0658 0.0622,0.12426 0.0918,0.1875 0.20029,-0.0399 0.24,-0.15798 -0.004,-0.38672 -0.0697,-0.0656 -0.1509,-0.11674 -0.22266,-0.17969 z m 0.22656,0.56641 c -0.0261,0.005 -0.0463,0.0132 -0.0781,0.0156 0.0302,0.004 0.0589,0.008 0.0898,0.0117 -0.004,-0.009 -0.007,-0.0178 -0.0117,-0.0273 z m -0.0781,0.0156 c -0.18087,-0.0225 -0.38705,-0.0403 -0.53906,-0.0664 -1.2038,-0.20646 -2.20903,-0.93453 -3.20118,-1.70899 -0.17377,-0.0466 -0.41355,-0.11933 -0.54882,-0.15039 -0.0499,-0.0778 -0.0956,-0.15965 -0.14453,-0.23828 -0.0882,0.006 -0.11618,0.008 -0.18946,0.0137 0.10413,0.13881 0.19394,0.27983 0.30274,0.41797 0.3189,0.40489 1.05398,0.80004 1.83789,1.11524 -0.41965,-0.28768 -1.0807,-0.76894 -0.77149,-0.59766 0.36389,0.20158 0.69583,0.45676 1.0293,0.70703 10e-4,5.2e-4 0.003,5.2e-4 0.004,0.002 0.88995,0.33089 1.79714,0.53816 2.2207,0.50585 z m -4.43359,-2.16406 c 0.0755,-0.005 0.0744,-0.009 0.1621,-0.0137 -0.0578,-0.0452 -0.11781,-0.086 -0.17578,-0.13086 -0.0309,-0.0112 -0.0624,-0.0235 -0.0937,-0.0351 0.0363,0.0595 0.0707,0.12062 0.10743,0.17968 z m -0.10743,-0.17968 c -0.0134,-0.0219 -0.0258,-0.0445 -0.0391,-0.0664 -0.17238,-0.13198 -0.34193,-0.26792 -0.51758,-0.39258 0.0771,0.1107 0.16034,0.22152 0.24024,0.33203 0.0182,0.008 0.0344,0.0197 0.0527,0.0274 0.0917,0.0386 0.17543,0.0662 0.26367,0.0996 z m -0.55664,-0.45899 c -0.007,-0.009 -0.015,-0.0179 -0.0215,-0.0273 -0.01,-0.003 -0.0194,-0.007 -0.0293,-0.01 0.017,0.012 0.0338,0.025 0.0508,0.0371 z m -0.0215,-0.0273 c 0.11619,0.036 0.2329,0.0707 0.34961,0.10547 -0.12004,-0.20487 -0.24149,-0.40881 -0.35742,-0.61719 -0.1258,-0.0176 -0.24283,-0.0305 -0.36914,-0.0488 0.12191,0.18708 0.24716,0.37352 0.37695,0.56055 z m 10.46679,10.94336 c 0.038,0.13099 0.078,0.26135 0.11524,0.39257 -0.0356,-0.14245 -0.0585,-0.27923 -0.10156,-0.42773 -0.004,-0.0122 -0.009,0.0256 -0.0137,0.0352 z m 0.11524,0.39257 c 0.0291,0.11635 0.0589,0.23497 0.082,0.34961 0.0388,0.11098 0.14537,0.44273 0.11523,0.33008 -0.061,-0.22791 -0.13293,-0.45271 -0.19726,-0.67969 z m 44.02148,106.61329 c 0.024,-0.10569 0.0523,-0.20988 0.0742,-0.31641 -0.14017,0.19026 -0.29354,0.38448 -0.41601,0.56836 -0.11662,0.17511 0.0969,-0.0115 0.34179,-0.25195 z m 0.0742,-0.31641 c 0.62461,-0.84784 1.37869,-1.75365 2.0918,-2.72852 0.37172,-0.7568 0.42426,-1.39032 0.91211,-3.41796 -0.83516,-1.83128 -1.37493,-3.05238 -1.92969,-4.30079 -0.27382,0.61942 -0.58948,1.22087 -0.98242,1.78711 0.34915,2.69892 0.49428,5.81445 -0.0918,8.66016 z m 3.36719,-50.01367 c -0.0127,-0.13428 -0.0243,-0.26808 -0.0352,-0.40235 -0.0579,0.33028 -0.1052,0.56343 -0.16992,0.95313 -0.0464,0.27904 0.0717,-0.10372 0.20508,-0.55078 z m -0.0352,-0.40235 c 0.0128,-0.0731 0.0246,-0.14061 0.0371,-0.21093 -0.0244,-0.0497 -0.0304,-0.0621 -0.0684,-0.13672 0.007,0.11607 0.0221,0.23158 0.0312,0.34765 z m 41.1211,-85.58984 c 0.0154,-0.0184 0.0314,-0.0381 0.0469,-0.0566 0.005,-0.0605 0.011,-0.12126 0.0137,-0.18164 z m -16.10938,-69.39062 c 0.007,-0.004 0.0215,-0.0112 0.0293,-0.0156 -0.90979,0.0367 -1.83964,-0.0108 -2.73438,0.12109 -0.94974,0.13999 1.27501,0.11081 2.70508,-0.10546 z m 0.0293,-0.0156 c 0.0491,-0.002 0.0976,-0.007 0.14648,-0.01 0.23116,-0.0394 0.44036,-0.0842 0.59571,-0.13476 1.18857,-0.38692 2.23738,-1.09831 3.31445,-1.7461 -0.11733,0.0253 -0.23516,0.0475 -0.35352,0.0684 -2.3906,1.10038 -3.26642,1.57273 -3.70312,1.82227 z m -30.6582,-36.23437 c -0.43534,0.12298 -0.86946,0.25068 -1.28711,0.42187 -0.43397,0.17787 -1.63396,0.90626 -1.19532,0.74023 0.85298,-0.32287 1.6618,-0.75841 2.48243,-1.1621 z m 0.5,0.51171 c 0.0281,-0.0344 -0.18218,0.0247 -0.48438,0.1211 0.1434,-0.0281 0.39858,-0.016 0.48438,-0.1211 z m -0.56641,0.14844 c -0.18651,0.0605 -0.37918,0.12218 -0.63086,0.21094 0.27069,-0.0216 0.54269,-0.034 0.81641,-0.0234 -0.0819,-0.0157 -0.15365,-0.044 -0.19532,-0.11719 -0.0189,-0.0333 -0.009,-0.054 0.01,-0.0703 z m 44.48047,7.38867 c -0.006,0.0735 -0.0112,0.14705 -0.0156,0.22071 0.0275,-0.0522 0.0285,-0.12042 0.0274,-0.18946 -0.004,-0.0107 -0.008,-0.0206 -0.0117,-0.0312 z m -1.18359,0.0176 c 0.14999,0.30514 0.293,0.61477 0.42773,0.92969 0.22574,-0.22206 0.44509,-0.43874 0.57617,-0.54883 -0.29034,-0.16971 -0.6278,-0.2945 -1.0039,-0.38086 z m 1.14843,0.47852 c -0.0434,0.63524 -0.10501,1.26821 -0.17578,1.90039 0.0778,0.22379 0.16877,0.44187 0.24024,0.66797 0.0815,0.25775 0.14186,0.5045 0.21484,0.75781 0.22672,-0.0164 0.46415,-0.0435 0.67969,-0.0488 0.0538,-0.24276 0.0951,-0.49933 0.10547,-0.78711 0.005,-0.13395 -0.0158,-0.24351 -0.0215,-0.36719 -0.16216,-0.4381 -0.39987,-1.02815 -0.69922,-1.8164 -0.10776,-0.10866 -0.21448,-0.21891 -0.34375,-0.30664 z m -69.79687,4.60547 c 0.11402,-0.21872 -0.27739,0.40927 -0.41602,0.61328 -0.0119,0.0361 -0.0429,0.11558 -0.0586,0.16015 0.16953,-0.2509 0.33493,-0.50548 0.47461,-0.77343 z m 62.14453,20.2832 c -0.0488,0.0367 -0.10094,0.0664 -0.15039,0.10156 0.0496,-0.0349 0.10074,-0.0668 0.15039,-0.10156 z m -1.23633,0.45898 c -0.18823,0.0845 -0.28408,0.13164 -0.45898,0.21094 0.0434,-0.006 0.0873,-0.0111 0.1289,-0.0176 0.11056,-0.0631 0.21822,-0.13325 0.33008,-0.19336 z m -84.60937,14.43555 c 0.002,0.0497 0.01,0.27279 0.01,0.40039 0.008,0.0391 0.0187,0.13442 0.0273,0.20117 -0.0321,-0.52983 -0.0389,-0.64896 -0.0371,-0.60156 z m 2.25781,2.13086 c -0.28352,-0.11428 -1.10445,3.32525 -0.6875,4.50586 0.0986,0.2793 0.21453,0.55006 0.32617,0.82226 0.20039,-1.68301 0.57192,-3.36158 0.44531,-5.04492 -0.0134,-0.17836 -0.0435,-0.26687 -0.084,-0.2832 z m 1.05273,3.17187 c -0.26045,-0.0879 -0.64271,2.64824 -0.44922,4.1875 0.20632,0.38155 0.41534,0.75058 0.63086,1.10547 0.0955,-1.67776 0.2242,-3.35799 -0.0664,-5.00195 -0.0329,-0.18584 -0.0724,-0.27656 -0.11524,-0.29102 z m 0.67774,12.94532 c 0.0242,0.1484 0.002,0.0334 0.0371,0.25 0.005,0.0292 0.048,0.10716 0.041,0.0781 -0.025,-0.10959 -0.0525,-0.21868 -0.0781,-0.32812 z m 52.16406,5.46093 c 0.0149,0.0363 0.062,0.15145 0.0859,0.20704 0.0386,0.008 0.0767,0.0173 0.11523,0.0254 -0.0175,-0.029 -0.0886,-0.15113 -0.10156,-0.17188 -0.0334,-0.0197 -0.0661,-0.0411 -0.0996,-0.0606 z m 2.29687,0.96485 c 0.0137,0.0115 0.0327,0.029 0.0469,0.041 -0.005,-0.006 -0.009,-0.01 -0.0156,-0.0176 -0.0128,-0.009 -0.0192,-0.0147 -0.0312,-0.0234 z m 5.6875,1.41992 c -0.51131,0.0383 -2.04584,0.10523 -1.5332,0.11523 0.77642,0.0148 1.43883,-8.5e-4 2.05664,-0.0215 -0.17486,-0.0298 -0.34891,-0.0626 -0.52344,-0.0937 z m 1.38282,0.25 c 0.31711,0.1627 0.6338,0.32323 0.95703,0.4668 0.53327,0.23686 -0.61425,-0.40553 -0.61719,-0.40625 -0.11269,-0.0237 -0.22675,-0.0391 -0.33984,-0.0606 z m 10.95898,1.98633 c 0.009,0.007 0.0628,0.0269 0.16992,0.0625 0.6945,0.23073 1.17878,0.38154 1.64844,0.52734 0.0627,-0.0445 0.12445,-0.0908 0.1875,-0.13476 -0.91535,-0.19476 -2.05166,-0.49268 -2.00586,-0.45508 z m 11.74219,12.0293 c -0.0173,0.0244 -0.0335,0.044 -0.0508,0.0684 0.14178,0.64803 0.2851,1.29333 0.43164,1.93555 0.4169,-0.55603 0.84576,-1.12211 1.31836,-1.7207 0.0269,-0.034 0.05,-0.0441 0.0762,-0.0742 -0.03,-0.019 -0.0635,-0.0359 -0.0937,-0.0547 -0.54308,-0.0725 -1.12123,-0.12702 -1.68164,-0.15429 z m 1.77539,0.20898 c 0.35886,0.22708 0.69551,0.46704 1.01758,0.7168 0.0878,-0.0915 0.17587,-0.18407 0.26367,-0.27539 -0.035,-0.10041 -0.0731,-0.18347 -0.11133,-0.26758 -0.31536,-0.0848 -0.71248,-0.15125 -1.13281,-0.21094 -0.0127,0.0139 -0.0242,0.0222 -0.0371,0.0371 z m 1.01758,0.7168 c -0.39044,0.40676 -0.78282,0.81371 -1.17578,1.2207 0.53051,-0.27382 1.03563,-0.52795 1.61718,-0.8457 -0.14571,-0.12579 -0.2862,-0.25465 -0.4414,-0.375 z m -1.17578,1.2207 c -0.15872,0.0819 -0.32457,0.169 -0.48438,0.25195 0.0563,0.0246 0.11166,0.0515 0.16797,0.0762 0.10572,-0.10927 0.21072,-0.21866 0.31641,-0.32812 z m -0.0391,0.45117 c 0.5553,0.245 1.11047,0.48937 1.66211,0.74219 0.0921,-0.11141 0.20042,-0.22801 0.28711,-0.33789 v -0.002 c -0.64044,-0.11601 -1.29363,-0.25475 -1.94922,-0.40235 z m 7.31836,1.60352 c -0.007,1.40618 -0.11765,2.81055 -0.35156,4.1914 -0.0944,0.20104 -0.19169,0.40099 -0.28711,0.60157 0.003,0.17636 0.003,0.32808 0.004,0.5 0.97547,-0.53324 1.29667,-2.12207 0.63476,-5.29297 z m -0.84179,5.21679 c -0.0346,0.0722 -0.0691,0.1445 -0.10352,0.2168 0.0122,-0.004 0.027,-0.002 0.0391,-0.006 0.0103,-0.0283 0.0232,-0.0556 0.0332,-0.084 0.0145,-0.041 0.0188,-0.0854 0.0312,-0.12696 z m -1.39258,3.28321 c -0.11094,0.13507 -0.22305,0.2692 -0.33399,0.40429 -0.0502,0.1125 -0.10477,0.22311 -0.15429,0.33594 -0.0793,0.18074 0.27674,-0.29042 0.36132,-0.46875 0.0428,-0.0902 0.0842,-0.18125 0.12696,-0.27148 z m 1,3.02734 c -0.49944,0.66985 -0.89389,1.20859 -1.23047,1.67578 0.13096,0.35092 0.2582,0.10451 1.24023,-1.61133 -0.002,-0.0216 -0.007,-0.0429 -0.01,-0.0645 z m -14.28711,7.89844 c -0.11219,0.0382 -0.2239,0.0784 -0.33594,0.11719 0.029,0.003 0.0511,0.006 0.0899,0.008 0.0815,-0.043 0.16468,-0.0817 0.24609,-0.125 z m -15.45899,6.375 c -0.48633,0.16354 -0.97579,0.31456 -1.46093,0.45703 0.4028,-0.11621 0.80424,-0.23144 1.20703,-0.34766 0.0843,-0.0362 0.29598,-0.14695 0.2539,-0.10937 z m -64.42968,2.11328 c 0.53902,1.92451 0.57162,4.14594 1.05664,6.13086 0.50845,0.0368 1.04889,0.0568 1.60937,0.0605 -0.0355,-0.13139 -0.0437,-0.19383 0.0293,-0.0547 0.0105,0.0201 0.0171,0.0349 0.0273,0.0547 0.35803,0.002 0.70349,-0.004 1.05469,-0.0195 0.0667,-0.57768 0.16056,-1.15436 0.21875,-1.73242 0.30798,-1.01621 0.4647,-1.54399 0.57227,-1.87695 -1.39179,-1.02218 -2.94787,-1.83357 -4.56836,-2.5625 z m 4.70703,2.66601 c -0.0433,0.63516 -0.12032,1.88861 -0.0742,3.45313 0.32179,-0.0302 0.60195,-0.0784 0.88086,-0.12891 0.0357,-0.17625 0.0647,-0.24863 0.0684,-0.01 1.20912,-0.22974 1.9213,-0.65832 1.24805,-1.4043 -0.64599,-0.71575 -1.36335,-1.34024 -2.12305,-1.91016 z m -3.13672,4.91407 c 0.19891,0.28382 0.35433,0.26314 0.45703,0.19336 -0.15641,-0.0602 -0.3044,-0.12935 -0.45703,-0.19336 z m 3.80273,2.80664 c -9.4e-4,0.0171 -4.3e-4,0.0335 -0.002,0.0508 1.22462,0.77956 2.81908,1.52268 2.05078,1.07617 -0.67365,-0.39149 -1.3615,-0.75974 -2.04883,-1.12695 z m 3.13086,95.30664 c -0.0361,-0.0643 -0.38939,1.4203 -0.68164,2.125 0.0119,0.14574 0.008,0.14262 0.0156,0.24805 0.25339,-0.73342 0.56917,-1.46383 0.6582,-2.22071 0.0112,-0.095 0.011,-0.14239 0.008,-0.15234 z m 1.46289,6.28125 c 3e-4,0.005 -3.3e-4,0.0106 0,0.0156 0.003,0.003 0.005,0.005 0.008,0.008 -0.003,-0.008 -0.005,-0.0157 -0.008,-0.0234 z m 0.008,0.0234 c 0.0331,0.0874 0.069,0.17323 0.10351,0.25976 -0.0121,-0.0654 -0.0277,-0.12191 -0.0371,-0.19336 -0.0218,-0.0222 -0.0452,-0.0439 -0.0664,-0.0664 z m 0.0195,0.27929 c 0.33794,2.10335 2.75065,5.80664 2.74023,5.76563 -0.49353,-1.9429 -1.88147,-3.55322 -2.57617,-5.4336 -0.0197,-0.0533 -0.0293,-0.13088 -0.0449,-0.19336 -0.0349,-0.0343 -0.0726,-0.0726 -0.0937,-0.0937 -0.0111,-0.0111 -0.0154,-0.032 -0.0254,-0.0449 z m 33.55273,4.80274 c -0.34154,0.0302 -0.84229,0.0987 -1.61719,0.24804 -0.53451,0.34105 -1.0812,0.65487 -1.65429,0.91016 1.46158,-0.24078 2.4073,-0.57548 3.27148,-1.1582 z m -8.71484,1.07226 c -0.0199,0.008 -0.0387,0.0189 -0.0586,0.0273 0.0689,0.0861 0.1308,0.16828 0.20118,0.25586 0.10916,-0.0503 0.19556,-0.0907 0.29687,-0.13868 -0.14657,-0.0483 -0.29302,-0.0944 -0.43945,-0.14453 z m -9.62305,0.0195 c -0.1449,0.14168 -0.28868,0.28412 -0.43359,0.42579 0.66636,0.0359 1.33929,0.0239 2.01367,0.004 -0.52671,-0.1431 -1.05337,-0.28659 -1.58008,-0.42969 z m 8.63086,0.42969 c -0.79378,0.3807 -1.57655,0.79254 -2.37695,1.1543 0.30109,-0.0475 0.57587,-0.10437 0.77148,-0.17188 0.41341,-0.14253 1.0592,-0.4096 1.72461,-0.69726 -0.0326,-0.0796 -0.0853,-0.20275 -0.11914,-0.28516 z m -3.37305,0.99805 c -0.14402,0.0192 -0.28867,0.0322 -0.4375,0.0488 0.008,0.009 0.0157,0.0207 0.0234,0.0293 0.0835,0.0416 0.1813,0.0991 0.24609,0.11914 0.0858,0.0266 0.17823,0.0338 0.26758,0.0508 0.18613,-0.0109 0.36022,-0.0243 0.53907,-0.0449 -0.0313,-0.016 -0.0759,-0.042 -0.11133,-0.0605 -0.17572,-0.0477 -0.35163,-0.0948 -0.52735,-0.14258 z m 9.61133,0.0625 c -0.0766,-0.0661 -1.51529,0.19599 -3.88476,0.31445 0.17845,0.23199 0.36189,0.50525 0.54296,0.75195 0.63023,-0.0816 1.22239,-0.26864 2.21094,-0.5625 0.81456,-0.32654 1.17327,-0.46732 1.13086,-0.5039 z m -10.64453,0.14844 c -0.0564,0.005 -0.22407,0.008 -0.16797,0.0156 0.12554,0.0171 0.27646,0.0179 0.41797,0.0254 -0.0833,-0.0136 -0.16666,-0.0274 -0.25,-0.041 z m 0.78711,0.0469 0.006,0.006 c 0.007,-1.5e-4 0.0143,-0.002 0.0215,-0.002 -0.009,-10e-4 -0.0182,-0.003 -0.0273,-0.004 z m 0.66211,0.0508 c 0.17341,0.0184 0.34929,0.0287 0.52344,0.043 -0.0128,-0.006 -0.0263,-0.0113 -0.0391,-0.0176 -0.16437,-0.01 -0.31621,-0.0133 -0.48437,-0.0254 z m 0.66211,0.0352 c 0.0213,0.0117 0.043,0.0217 0.0644,0.0332 0.35709,0.0384 0.70287,0.10279 0.99219,0.30274 0.0615,0.0425 0.0813,0.0688 0.0879,0.0898 0.5687,0.0951 0.94708,0.14422 1.36914,0.20508 0.0719,-0.16058 0.13646,-0.3468 0.19531,-0.55078 -0.83029,0.004 -1.73203,-0.0245 -2.70898,-0.0801 z m -1.23047,0.01 c 1.43586,1.51424 2.72212,2.1402 3.50586,1.0293 -0.0671,-0.0215 -0.1369,-0.0342 -0.20313,-0.0586 -0.46486,-0.1709 -0.92018,-0.36824 -1.37109,-0.57422 -0.495,-0.0949 -1.26437,-0.29683 -1.65625,-0.35156 -0.0918,-0.015 -0.18362,-0.0299 -0.27539,-0.0449 z m 5.85547,1.45313 c 0.0188,0.004 0.0524,0.0197 0.0684,0.0215 -0.0197,-0.007 -0.0377,-0.0144 -0.0566,-0.0215 -0.004,-1.6e-4 -0.008,1.6e-4 -0.0117,0 z m 1.0918,0.0508 c 0.007,0.0106 0.0161,0.0186 0.0234,0.0293 1.23793,0.0683 2.73993,0.11406 1.96875,0.0625 -0.66325,-0.0444 -1.32796,-0.0645 -1.99218,-0.0918 z" /><g
   id="g10">
	<path
   d="M222.892,388h51.491c4.418,0,8-3.582,8-8V264.093h26.751c4.101,0,7.538-3.101,7.958-7.18l4.51-43.772   c0.232-2.252-0.501-4.498-2.019-6.179c-1.517-1.682-3.675-2.641-5.939-2.641h-31.261v-17.73c0-3.662,1.159-3.936,2.928-3.936   h27.682c4.418,0,8-3.582,8-8v-42.5c0-4.406-3.562-7.982-7.968-8L274.848,124c-26.752,0-41.029,11.77-48.295,21.643   c-10.146,13.787-11.661,29.941-11.661,38.343v20.334h-16.489c-4.418,0-8,3.582-8,8v43.772c0,4.418,3.582,8,8,8h16.489V380   C214.892,384.418,218.473,388,222.892,388z M206.402,248.093v-27.772h16.489c4.418,0,8-3.582,8-8v-28.334   c0-5.185,0.833-18.376,8.547-28.86c7.386-10.037,19.3-15.126,35.376-15.126l30.177,0.122v26.533h-19.682   c-9.421,0-18.928,6.164-18.928,19.936v25.73c0,4.418,3.582,8,8,8h30.395l-2.862,27.772h-27.533c-4.418,0-8,3.582-8,8V372h-35.491   V256.093c0-4.418-3.582-8-8-8H206.402z"
   id="path2" />
	<path
   d="M437.022,74.984C388.67,26.63,324.381,0,256,0C187.624,0,123.338,26.63,74.984,74.984S0,187.624,0,256   c0,68.388,26.63,132.678,74.984,181.028C123.335,485.375,187.621,512,256,512c68.385,0,132.673-26.625,181.021-74.972   C485.372,388.679,512,324.389,512,256C512,187.622,485.372,123.336,437.022,74.984z M425.708,425.714   C380.381,471.039,320.111,496,256,496c-64.106,0-124.374-24.961-169.703-70.286C40.965,380.386,16,320.113,16,256   c0-64.102,24.965-124.37,70.297-169.702C131.63,40.965,191.898,16,256,16c64.108,0,124.378,24.965,169.708,70.297   C471.037,131.628,496,191.896,496,256C496,320.115,471.037,380.387,425.708,425.714z"
   id="path4" />
	<path
   d="M430.038,114.969c-2.784-3.432-7.821-3.957-11.253-1.172c-3.431,2.784-3.956,7.822-1.172,11.252   C447.526,161.919,464,208.425,464,256c0,55.567-21.635,107.803-60.919,147.086C363.797,442.367,311.563,464,256,464   c-51.26,0-100.505-18.807-138.663-52.956c-3.292-2.946-8.35-2.666-11.296,0.626c-2.946,3.292-2.666,8.35,0.626,11.296   C147.763,459.745,200.797,480,256,480c59.837,0,116.089-23.297,158.394-65.601C456.701,372.094,480,315.84,480,256   C480,204.766,462.256,154.681,430.038,114.969z"
   id="path6" />
	<path
   d="M48,256c0-114.691,93.309-208,208-208c51.26,0,100.504,18.808,138.662,52.959c3.293,2.948,8.351,2.666,11.296-0.625   c2.947-3.292,2.667-8.35-0.625-11.296C364.237,52.256,311.203,32,256,32c-59.829,0-116.079,23.301-158.389,65.611   C55.301,139.92,32,196.171,32,256c0,51.24,17.744,101.328,49.963,141.038c1.581,1.949,3.889,2.96,6.217,2.96   c1.771,0,3.553-0.585,5.036-1.788c3.431-2.784,3.956-7.822,1.172-11.253C64.474,350.088,48,303.58,48,256z"
   id="path8" />
</g>
<g
   id="g12">
</g>
<g
   id="g14">
</g>
<g
   id="g16">
</g>
<g
   id="g18">
</g>
<g
   id="g20">
</g>
<g
   id="g22">
</g>
<g
   id="g24">
</g>
<g
   id="g26">
</g>
<g
   id="g28">
</g>
<g
   id="g30">
</g>
<g
   id="g32">
</g>
<g
   id="g34">
</g>
<g
   id="g36">
</g>
<g
   id="g38">
</g>
<g
   id="g40">
</g>
</svg>
