<?xml version="1.0" encoding="UTF-8" standalone="no"?>
<svg
   xmlns:dc="http://purl.org/dc/elements/1.1/"
   xmlns:cc="http://creativecommons.org/ns#"
   xmlns:rdf="http://www.w3.org/1999/02/22-rdf-syntax-ns#"
   xmlns:svg="http://www.w3.org/2000/svg"
   xmlns="http://www.w3.org/2000/svg"
   xmlns:sodipodi="http://sodipodi.sourceforge.net/DTD/sodipodi-0.dtd"
   xmlns:inkscape="http://www.inkscape.org/namespaces/inkscape"
   version="1.1"
   id="Capa_1"
   x="0px"
   y="0px"
   viewBox="0 0 512 512"
   style="enable-background:new 0 0 512 512;"
   xml:space="preserve"
   sodipodi:docname="phonecallgreen.svg"
   inkscape:version="1.0.1 (3bc2e813f5, 2020-09-07)"><metadata
   id="metadata47"><rdf:RDF><cc:Work
       rdf:about=""><dc:format>image/svg+xml</dc:format><dc:type
         rdf:resource="http://purl.org/dc/dcmitype/StillImage" /><dc:title></dc:title></cc:Work></rdf:RDF></metadata><defs
   id="defs45" /><sodipodi:namedview
   pagecolor="#ffffff"
   bordercolor="#666666"
   borderopacity="1"
   objecttolerance="10"
   gridtolerance="10"
   guidetolerance="10"
   inkscape:pageopacity="0"
   inkscape:pageshadow="2"
   inkscape:window-width="1920"
   inkscape:window-height="1017"
   id="namedview43"
   showgrid="false"
   inkscape:zoom="0.74301455"
   inkscape:cx="-178.04884"
   inkscape:cy="-15.498159"
   inkscape:window-x="-8"
   inkscape:window-y="-8"
   inkscape:window-maximized="1"
   inkscape:current-layer="Capa_1" />
<path
   id="path146"
   style="fill:#008000;stroke-width:1.08149"
   d="M 256.13477,8.9511719 A 247.04274,245.64903 0 0 0 9.3457031,254.59961 247.04274,245.64903 0 0 0 256.38867,500.25 247.04274,245.64903 0 0 0 503.43164,254.59961 247.04274,245.64903 0 0 0 256.38867,8.9511719 a 247.04274,245.64903 0 0 0 -0.2539,0 z M 173.91016,164.98047 c 0.64129,0.2807 1.31617,0.508 1.99414,0.73047 0.93371,-0.14692 1.9869,-0.17766 3.1914,0.004 0.004,10e-4 0.01,-0.001 0.0137,0.002 0.33913,0.0104 1.24969,-0.0743 1.98632,-0.0215 -0.007,-0.0878 0.0561,-0.12577 0.1836,-0.11523 0.59306,0.049 2.39491,1.01068 3.10547,1.48633 0.57836,0.38714 0.92357,1.02533 1.32031,1.61132 0.0214,0.008 0.0431,0.0153 0.0644,0.0234 0.0951,0.15106 0.4006,0.58928 0.28516,0.45313 -0.12651,-0.14921 -0.2381,-0.31186 -0.34961,-0.47657 -0.24811,-0.0938 -0.5001,-0.17797 -0.75,-0.26757 0.34438,0.24662 0.65506,0.52565 0.88476,0.88086 0.13531,0.20922 0.23938,0.53081 0.32813,0.88281 0.65378,0.42236 1.31387,0.83432 1.9707,1.25195 0.52653,0.26626 1.06337,0.60766 1.60547,1.02149 4.40817,2.77068 8.8713,5.45644 13.33203,8.14062 0.29647,0.17512 0.59175,0.35104 0.88867,0.52539 0.96383,0.56593 0.51413,0.28132 0.0879,0.0898 -0.0904,-0.0399 -0.36639,-0.1463 -0.27929,-0.0996 0.60364,0.32379 1.2197,0.62072 1.83008,0.93164 1.4468,0.96996 1.31576,0.78628 2.79296,3.36523 0.3028,0.52866 0.31591,1.17636 0.50391,1.75586 0.006,0.0198 0.0545,0.009 0.0625,-0.01 0.013,-0.0298 -0.0299,-0.1304 -0.0156,-0.0976 0.13432,0.27392 0.25154,0.55587 0.37695,0.83398 0.0143,0.0357 0.0442,0.10338 0.0684,0.15821 2.156,1.84445 4.12336,3.89948 6.10937,5.92187 0.4813,0.49012 0.98483,0.95944 1.44141,1.47266 1.09126,1.22665 2.13252,2.49607 3.19922,3.74414 0.76896,0.94168 1.55253,1.87255 2.30664,2.82617 1.27828,1.61647 3.85923,4.97193 5.24805,6.86523 0.54647,0.74498 1.07883,1.49886 1.61132,2.25391 1.86667,0.86166 1.63749,3.37762 1.75391,8.81055 0.0144,0.67341 -1.08217,0.83075 -1.71094,1.07226 -1.56267,0.6002 -2.31444,0.56117 -3.27539,0.23828 -0.22913,0.009 -0.4432,0.002 -0.66211,0 -0.0114,1.37281 -0.0962,2.7471 -0.15429,4.11719 -0.0921,1.18471 -0.001,2.36977 0.0137,3.55469 -2.10311,1.71496 -4.1087,3.55562 -6.3086,5.14453 -0.19676,0.1421 -0.50258,0.0334 -0.72461,-0.0644 -2.8635,-1.26493 -3.19267,-1.29621 -3.94531,-2.13672 -0.39966,0.31121 -1.11538,0.28117 -2.49414,0.11523 -0.20189,0.16778 -0.40275,0.33696 -0.60351,0.50586 -0.097,0.0705 -0.19142,0.14451 -0.28711,0.2168 -0.0707,0.25078 -0.77707,2.71695 -0.78711,2.78516 -0.0554,0.37637 0.31795,1.03445 0.10547,1.23046 0.0883,0.35093 0.16168,0.68949 -0.10547,0.70508 -1.12032,0.0655 -2.24551,0.0709 -3.3711,0.0488 -0.16074,0.0368 -0.27226,0.0675 -0.42578,0.10352 -0.96239,0.8801 -1.98153,1.77159 -3.02929,2.64843 0.02,0.65455 0.12637,1.40814 -0.39258,1.44336 -0.5895,0.04 -1.0248,0.0831 -1.54883,0.125 -0.34955,0.27846 -0.69469,0.54214 -1.04297,0.81446 0.14931,1.23156 0.27953,2.46556 0.35742,3.70312 0.1257,1.99691 0.0371,4.00117 0.0547,6.00195 -0.0882,0.67649 -0.0696,0.48386 -0.11914,0.86719 0.1582,1.10269 0.29096,2.19901 0.41211,3.52344 0.0361,0.39507 0.11879,0.79885 0.20703,1.20312 0.30992,0.22581 0.61906,0.4529 0.93164,0.67383 1.69146,1.19555 3.36494,2.4185 5.04297,3.63281 6.07785,4.39827 1.8891,1.47965 9,6.28125 1.07681,0.6947 2.17426,1.35836 3.23047,2.08399 1.7429,0.61485 2.71547,2.19793 4.12304,3.23047 2.64698,1.94175 5.35345,3.79986 8.03516,5.69336 2.68156,1.89338 5.43388,3.6894 8.05469,5.66601 3.21976,2.42835 6.30584,5.02872 9.45898,7.54297 4.07557,3.61385 8.30768,7.0864 12.14063,10.9668 0.66226,0.67046 1.30381,1.36144 1.93359,2.0625 1.30134,1.44868 0.47334,0.80061 1.31641,1.41406 -0.01,-0.025 -0.0436,-0.0969 -0.0293,-0.0742 2.62657,4.15439 2.10841,2.18969 2.43945,5.79688 0.94364,10.28244 -12.77311,-10.29014 -10.42773,-0.23438 0.003,0.0119 0.003,0.0251 0.006,0.0371 3.64094,1.76674 9.59786,4.56476 9.78711,4.65234 1.66397,0.77016 7.46345,3.37176 11.06054,4.93165 3.96013,0.0507 7.92145,0.0892 11.87696,0.002 0.50579,-0.0112 1.01092,-0.0462 1.51562,-0.084 0.24792,-0.18139 0.49298,-0.36814 0.74024,-0.55078 -0.22137,-1.60702 0.29056,-3.15233 1.15625,-5.09961 0.50834,-0.77743 0.98134,-1.57915 1.52539,-2.33203 0.15527,-0.21488 0.37524,-0.37484 0.56445,-0.56054 0.39691,-0.38954 0.79197,-0.7811 1.19336,-1.16602 1.71046,-1.64027 3.48251,-3.37777 5.73828,-4.23828 0.93029,-0.43981 1.84599,-0.91012 2.77735,-1.34766 2.55375,-1.19972 5.2421,-2.09866 7.7207,-3.46484 0.74652,-0.96113 1.90846,-1.54803 3.30859,-1.58594 0.59839,-0.25762 1.17262,-0.4856 1.58789,-0.58008 0.69478,-0.15807 1.39845,-0.27868 2.10547,-0.36718 0.12654,-0.0156 0.25502,-0.0161 0.38281,-0.0117 0.1278,0.004 0.25538,0.0145 0.38282,0.0195 1.60504,0.0611 2.47747,0.1404 4.14843,0.25976 v -0.002 c 6.13785,0.43842 8.35169,4.30903 6.96094,7.21094 0.97641,0.29524 1.99034,0.81225 3.01172,1.61914 0.51032,0.40314 1.02094,0.80779 1.53125,1.21094 0.67399,0.74158 1.38955,1.44689 2.02148,2.22461 0.24305,0.29909 0.41229,0.65218 0.59376,0.99218 0.14395,0.26976 0.16457,0.61784 0.38085,0.83399 0.37833,0.3781 0.89981,0.57792 1.33789,0.88476 2.06001,1.44271 1.60376,1.10797 3.17969,2.48828 2.78029,2.83123 1.27965,1.23517 2.91602,3.16016 0.86552,0.59906 1.72193,1.20993 2.55664,1.85156 0.816,0.72061 1.66084,1.40932 2.44726,2.16211 0.3074,0.29426 0.59003,0.61177 0.8711,0.93164 0.25165,0.19179 0.5045,0.38301 0.74219,0.5918 0.60282,0.52954 1.15367,1.11701 1.69531,1.70898 0.93233,1.01898 1.65115,1.83428 2.31836,2.60547 0.22198,0.18107 0.44847,0.35544 0.6875,0.51172 0.73465,0.48036 1.57038,0.78519 2.35547,1.17774 1.44305,0.72152 2.55528,1.54044 3.36718,2.39453 0.71547,-0.66138 1.35514,-1.11164 1.81641,-1.07227 0.58199,0.0497 0.89986,0.82265 0.79492,2.75586 -0.0492,0.90704 -0.0992,1.81367 -0.14844,2.7207 -0.0974,0.27979 -0.17912,0.56553 -0.29101,0.83985 -0.0415,0.1018 -0.29254,0.33791 -0.30664,0.41211 -0.0369,0.19451 -0.0503,0.39304 -0.0566,0.59179 0.15904,0.20927 0.32246,0.41496 0.48047,0.625 0.53302,0.70857 1.01092,1.45654 1.51562,2.18555 0.50568,0.73042 0.8966,1.43993 1.19922,2.125 3.20952,1.48226 3.71939,6.28143 -1.60547,10.08008 -0.1627,0.11607 -0.32558,0.23159 -0.48828,0.34766 -0.77877,0.53103 -1.58924,1.02743 -2.3418,1.5957 -1.52267,1.1498 -2.96613,2.40972 -4.57422,3.44531 -0.74522,0.48147 -1.48036,0.97894 -2.23632,1.44336 -0.70267,0.43169 -1.5307,0.64453 -2.15821,1.21094 -2.43879,1.53257 -4.72701,3.30141 -7.125,4.89453 -0.9999,0.71017 -2.01901,1.3948 -3,2.13086 -2.60178,1.95217 -0.30107,0.48145 -1.64257,1.41211 2.56574,1.39133 4.08988,2.82543 0.15429,4.15625 -0.49811,0.16843 -0.98046,0.39157 -1.49414,0.5039 -1.42398,0.31145 -1.70051,0.25777 -2.89258,0.22657 -0.40673,-0.013 -0.81431,-0.0182 -1.2207,-0.0391 -0.0854,-0.004 1.14546,-0.13944 0.44727,-0.12304 -0.46296,0.0109 -0.91714,0.29473 -1.38477,0.30273 -2.19987,0.52954 -4.33737,1.25953 -6.49023,1.94922 -0.62474,0.0932 -1.24528,0.21135 -1.87305,0.28125 -0.20984,0.0234 -0.42362,-0.002 -0.63477,-0.002 -1.2694,0 -2.5392,0.002 -3.80859,0.004 -1.9412,-0.002 -3.88111,-0.0384 -5.82227,0.002 -3.33616,0.0312 -6.69167,0.1761 -10.01757,-0.12696 -0.10589,0.0441 -0.19978,0.0889 -0.3086,0.13282 -0.18338,0.074 -0.35653,-0.071 -0.52734,-0.22071 -0.31773,-0.0367 -0.63608,-0.0708 -0.95313,-0.11718 -0.78275,-0.20333 -1.57476,-0.37132 -2.34765,-0.60938 -0.0349,-0.0107 -0.0673,-0.0286 -0.10157,-0.041 -0.2826,-0.0919 -0.59852,-0.2089 -1.11718,-0.40626 -2.06342,-0.81866 -0.93071,-0.35338 -2.625,-1.07812 -0.34549,-0.14779 -0.67909,-0.32724 -1.03711,-0.44141 -0.31302,-0.0998 -0.64516,-0.13026 -0.9668,-0.19726 -1.15474,-0.2406 -1.67254,-0.35659 -2.21094,-0.47266 -0.0328,-10e-4 -0.0421,0.002 -0.0762,0 -0.97422,-0.0451 -2.20534,-0.36807 -3.39648,-0.72265 -0.27342,0.019 -0.57678,0.0269 -0.92188,0.0117 -0.76131,-0.0334 -1.50343,-0.26621 -2.24219,-0.45312 -2.1412,-0.54172 -4.23487,-1.25437 -6.36718,-1.83008 -0.56391,-0.15225 -1.13558,-0.27596 -1.70313,-0.41406 -0.90085,-0.25699 -1.8088,-0.4926 -2.70312,-0.77149 -0.7997,-0.24938 -3.97358,-1.42815 -4.44922,-1.61132 -0.54079,-0.20825 -1.8252,-0.79762 -2.35547,-0.96094 -0.42138,-0.12978 -0.8607,-0.19101 -1.29102,-0.28711 -0.21404,-0.0582 -0.42788,-0.11757 -0.64257,-0.17383 -2.11195,1.25848 -4.56762,0.16506 -6.40625,-0.83984 -0.65134,-0.35599 -1.28727,-0.74043 -1.92579,-1.11914 -0.76877,-0.28879 -1.35972,-0.67318 -1.80273,-1.11914 -1.06313,-0.68195 -2.12964,-1.35967 -3.16406,-2.08399 -0.20726,-0.14512 -0.40478,-0.30385 -0.60742,-0.45508 -0.41275,-0.22572 -0.82441,-0.45246 -1.22461,-0.69921 -1.28175,-0.79035 -2.5271,-1.63875 -3.76368,-2.49805 -1.83244,-1.27338 -3.66437,-2.54881 -5.4414,-3.89844 -0.72746,-0.55249 -1.91994,-1.56683 -3.13281,-2.62109 -0.0792,-0.0575 -0.15924,-0.11406 -0.23829,-0.17188 -0.10314,1.65977 -0.15755,3.34266 -0.65234,4.89258 -0.24124,0.75568 -1.7986,-0.29299 -2.71875,-0.66211 -0.01,0.0224 -0.0162,0.0634 -0.0273,0.0801 -0.54509,0.81797 -1.10762,0.42593 -1.59961,-0.39063 -0.52581,-0.23955 -1.04931,-0.48374 -1.54102,-0.78515 -0.67038,-0.41093 -1.28498,-0.91272 -1.86523,-1.44336 -0.94326,-0.86262 -1.85126,-1.76866 -2.69531,-2.72852 -0.53312,-0.60622 -0.9319,-1.31846 -1.42579,-1.95703 -2.40674,-3.11183 -1.88023,-2.43214 -4.44336,-5.0332 -4.02184,-4.26302 -7.96821,-8.51727 -11.50585,-13.20703 -0.88044,-1.16715 -1.61477,-2.43736 -2.43946,-3.64453 -1.08105,-1.58241 -2.1556,-3.16882 -3.27734,-4.72266 -0.6051,-0.8382 -1.26668,-1.63438 -1.90039,-2.45117 -1.07989,-1.39961 -2.15888,-2.79165 -3.21875,-4.19727 -0.46814,0.35456 -0.93718,0.70832 -1.40235,1.06641 -0.54103,-0.52944 -1.06891,-1.07345 -1.60937,-1.60352 -0.0808,0.007 -0.16124,0.0206 -0.24219,0.0254 -0.34492,0.0202 -0.87629,-1.05805 -0.61328,-0.83398 0.29899,0.25473 0.57503,0.53355 0.85547,0.80859 0.44185,-0.0365 0.8821,-0.10017 1.32031,-0.18164 -2.81976,-0.90246 -3.59485,-2.16286 -2.37109,-0.29492 -1.32852,-1.87112 -2.72328,-3.70089 -4.08399,-5.54687 -3.06646,-4.16044 -6.10464,-8.34282 -9.2539,-12.44141 -0.83629,-1.21035 -1.68543,-2.41183 -2.51758,-3.625 -0.32546,0.0425 -0.68218,0.0752 -1.11328,0.082 -0.34404,0.005 -0.68917,0.0126 -1.03321,0.0176 -0.91431,-0.26211 -1.91786,-0.3126 -2.74218,-0.78711 -1.42769,-0.82185 -2.20798,-2.28079 -2.94532,-3.65039 -1.46633,-2.72368 -2.84433,-5.51063 -4.0625,-8.35352 -0.32255,-0.77957 -0.65615,-1.55428 -0.96875,-2.33789 -0.19738,-0.49476 -0.33849,-1.08028 -0.57226,-1.55664 -0.47916,-0.97639 -1.21085,-1.84739 -1.87109,-2.69531 -0.38839,-0.66398 -0.80469,-1.31311 -1.16602,-1.99219 -0.25598,-0.48108 -0.3092,-1.05432 -0.60352,-1.51953 -0.14524,-0.26651 -0.33895,-0.50265 -0.51757,-0.74805 -1.04455,-1.43509 -0.96798,-1.29263 -2.17969,-2.74804 -0.65668,-0.90817 -1.34454,-1.79529 -1.9707,-2.72461 -0.53264,-0.79022 -1.00253,-1.61927 -1.50391,-2.42969 -2.62856,-4.24876 -5.21742,-8.5251 -7.93945,-12.71484 -0.58907,-1.13255 -1.21868,-2.24589 -1.76758,-3.39844 -1.52083,-3.19335 -3.14481,-7.24079 -4.21485,-10.51172 -1.17062,-3.57834 0.82478,-0.1774 -1.125,-4.64844 -0.39213,-0.89918 -1.00897,-1.68227 -1.51367,-2.52344 -2.64849,-4.41415 -1.74911,-7.95399 0.47266,-9.30468 -0.0671,-0.28127 -0.0843,-0.57505 -0.1211,-0.86328 -0.0694,-0.54327 -0.13119,-1.08764 -0.18359,-1.63282 -0.012,-0.12555 -0.01,-0.25371 -0.008,-0.3789 0.004,-0.0319 0.0675,-0.0406 0.0625,-0.0723 -0.0747,-0.47457 -0.19798,-0.93999 -0.29688,-1.41016 0.002,-0.45747 -0.007,-0.91552 -0.008,-1.37304 -0.12799,-0.27878 -0.24853,-0.56139 -0.38086,-0.83789 -2.45435,-5.12853 -0.64984,-8.71987 2.20117,-9.35742 -0.0111,-0.14116 -0.0255,-0.28255 -0.0312,-0.42383 -0.0576,-1.39633 -0.061,-2.80618 0.22461,-4.18164 0.15897,-0.99445 0.33303,-1.98733 0.48633,-2.98242 0.0998,-0.64771 0.11883,-1.31212 0.29492,-1.94336 0.5425,-1.94468 0.91292,-2.33989 1.88672,-3.94141 0.65569,-0.90845 1.27699,-1.84179 1.9668,-2.72461 0.8742,-1.11884 3.25331,-3.75687 4.3789,-4.97461 0.89658,-2.37322 1.65121,-4.83419 3.22461,-6.875 1.06562,-0.99242 2.13608,-1.97941 3.19727,-2.97656 -0.0265,0.0135 -0.0515,0.0296 -0.0781,0.043 -0.054,0.0272 0.19051,-0.14887 0.14649,-0.10742 -0.0228,0.0215 -0.0455,0.043 -0.0684,0.0645 1.60606,-0.82074 3.04733,-1.94079 4.52539,-2.96289 1.85005,-1.42238 -1.46431,1.17163 1.73242,-1.63282 1.9548,-1.71491 4.26309,-3.06848 6.59961,-4.18945 0.29877,-0.14335 0.63535,-0.1892 0.95313,-0.2832 z m 11.04492,3.42969 c -0.16096,-0.11528 -0.33016,-0.22289 -0.50586,-0.32422 0.0454,0.0622 0.0984,0.13268 0.14258,0.19336 0.12141,0.0429 0.2421,0.0874 0.36328,0.13086 z m -0.36328,-0.13086 c -0.76239,-0.26939 -1.52326,-0.5412 -2.27735,-0.83008 0.0681,0.14562 0.13417,0.29291 0.20117,0.43945 0.40317,0.21073 0.8108,0.44044 1.22852,0.7168 0.64783,0.42859 1.30542,0.84284 1.95703,1.26562 -0.31647,-0.47816 -0.67416,-0.99394 -1.10937,-1.59179 z m -2.6543,-1.61328 c 6.5e-4,0.001 -0.001,0.003 0.002,0.004 0.001,-1e-4 0.003,1.1e-4 0.004,0 -0.002,-10e-4 -0.004,-0.002 -0.006,-0.004 z m 24.32422,18.90039 c 0.35535,0.27792 0.71049,0.5561 1.06445,0.83593 0.0381,-0.43947 -0.25354,-0.74352 -1.06445,-0.83593 z m 1.17383,0.32812 c -0.0101,0.0178 0.001,0.062 0.0371,0.13672 0.18636,0.38323 0.44368,0.7261 0.72265,1.05664 0.36138,0.28851 0.73024,0.56639 1.08985,0.85742 0.0155,0.0131 0.0295,0.0279 0.0449,0.041 -0.0971,-0.22989 -0.19411,-0.45839 -0.35547,-0.64453 -0.381,-0.43952 -1.46809,-1.57177 -1.53906,-1.44727 z m 22.57812,26.25195 c 0.13163,0.20126 0.25967,0.40567 0.4043,0.59766 0.12992,0.17246 -0.2161,-0.37365 -0.32422,-0.56055 -0.0317,-0.0128 -0.0491,-0.0243 -0.0801,-0.0371 z m -10.07617,11.66407 c -0.73914,0.94996 -1.51011,1.85991 -2.31445,2.73242 4.19342,0.0855 8.46351,0.62459 3.91797,-2.23242 -0.84805,-0.53305 -0.29588,-0.16951 -1.60352,-0.5 z m 2.16016,61.70898 c 0.14127,0.13658 0.24566,0.23658 0.39648,0.38281 2.27222,2.20304 5.58674,5.07166 7.78711,7.02149 1.14951,0.99704 2.29346,2.00013 3.44727,2.99219 1.5489,1.33174 3.10466,2.65642 4.66015,3.98046 0.97303,0.82825 1.92099,1.68714 2.92578,2.47657 4.78845,3.76214 6.88037,5.28329 9.78321,7.43164 0.95358,0.5521 1.90737,1.10195 2.87695,1.625 0.14005,0.0756 0.58288,0.28813 0.8125,0.40429 -0.22055,-0.25072 -0.46283,-0.48313 -0.78125,-0.64843 -3.59904,-3.65772 -7.59125,-6.91545 -11.41406,-10.32813 -2.98389,-2.3873 -5.90018,-4.86118 -8.95118,-7.16211 -2.64124,-1.99192 -5.42242,-3.7921 -8.11718,-5.71093 -1.14592,-0.81602 -2.28195,-1.64583 -3.42578,-2.46485 z" /><g
   id="g10">
	<path
   id="path2"
   d="M 256,0 C 187.624,0 123.33838,26.630375 74.984375,74.984375 26.630375,123.33838 0,187.624 0,256 0,324.388 26.630375,388.67734 74.984375,437.02734 123.33537,485.37434 187.621,512 256,512 324.385,512 388.67348,485.37434 437.02148,437.02734 485.37248,388.67834 512,324.389 512,256 512,187.623 485.37148,123.33637 437.02148,74.984375 388.66948,26.630375 324.381,0 256,0 Z m 0,16 C 320.108,16 380.37703,40.964875 425.70703,86.296875 471.03603,131.62787 496,191.896 496,256 496,320.115 471.03603,380.38784 425.70703,425.71484 380.38003,471.03984 320.111,496 256,496 191.894,496 131.62588,471.03984 86.296875,425.71484 40.964875,380.38684 16,320.113 16,256 16,191.898 40.964875,131.62987 86.296875,86.296875 131.62987,40.964875 191.898,16 256,16 Z" />
	<path
   id="path4"
   d="m 423.88867,112.00977 c -1.79297,-0.0149 -3.60201,0.5691 -5.10351,1.78711 -3.431,2.784 -3.95588,7.82195 -1.17188,11.25195 C 447.52628,161.91883 464,208.426 464,256 464,311.567 442.36408,363.80394 403.08008,403.08594 363.79608,442.36794 311.563,464 256,464 c -51.26,0 -100.50411,-18.80608 -138.66211,-52.95508 -3.292,-2.946 -8.35087,-2.667 -11.29687,0.625 -2.946,3.292 -2.66505,8.35088 0.62695,11.29688 C 147.76397,459.7458 200.797,480 256,480 315.837,480 372.08953,456.70244 414.39453,414.39844 456.70153,372.09444 480,315.84 480,256 c 0,-51.233 -17.74489,-101.31925 -49.96289,-141.03125 -1.56544,-1.9305 -3.84318,-2.93989 -6.14844,-2.95898 z" />
	<path
   id="path6"
   d="M 256,32 C 196.171,32 139.92033,55.301328 97.611328,97.611328 55.301328,139.92133 32,196.171 32,256 c 0,51.239 17.743891,101.32711 49.962891,141.03711 1.581,1.949 3.888797,2.96094 6.216797,2.96094 1.771,0 3.554109,-0.58411 5.037109,-1.78711 3.431,-2.784 3.955875,-7.82291 1.171875,-11.25391 C 64.474672,350.08803 48,303.58 48,256 48,141.309 141.309,48 256,48 c 51.26,0 100.50411,18.807984 138.66211,52.95898 3.293,2.948 8.34892,2.666 11.29492,-0.625 2.947,-3.291996 2.667,-8.350871 -0.625,-11.296871 C 364.23603,52.255109 311.203,32 256,32 Z" />
	
</g>
<g
   id="g12">
</g>
<g
   id="g14">
</g>
<g
   id="g16">
</g>
<g
   id="g18">
</g>
<g
   id="g20">
</g>
<g
   id="g22">
</g>
<g
   id="g24">
</g>
<g
   id="g26">
</g>
<g
   id="g28">
</g>
<g
   id="g30">
</g>
<g
   id="g32">
</g>
<g
   id="g34">
</g>
<g
   id="g36">
</g>
<g
   id="g38">
</g>
<g
   id="g40">
</g>
<g
   id="g116"
   transform="matrix(0.56752868,0,0,0.53601998,128.30162,139.95874)"><g
     id="g57">
	<g
   id="g55">
		<path
   id="path49"
   style="stroke-width:0.551549"
   transform="matrix(1.7620255,0,0,1.8656021,-226.07072,-261.10732)"
   d="m 179.75195,154.64844 c -6.92385,0 -13.62159,2.73507 -19.29687,7.88086 l -0.11328,0.10547 -19.29492,18.38671 c -7.26437,6.86106 -11.40837,15.22187 -12.31641,24.92383 -1.36207,15.65179 3.51798,30.23228 7.26367,39.77344 9.19397,23.42407 22.92823,45.13322 43.41602,68.39648 24.85775,28.03385 54.76641,50.17135 88.93164,65.76954 13.05316,5.84261 30.47712,12.7563 49.94336,13.93554 1.19181,0.0536 2.44111,0.10742 3.57617,0.10742 13.10991,0 24.11966,-4.44863 32.74609,-13.29296 0.0568,-0.10721 0.16981,-0.16038 0.22656,-0.26758 2.95115,-3.37693 6.35621,-6.43341 9.93164,-9.70313 2.44038,-2.19768 4.93854,-4.50197 7.37891,-6.91406 5.61854,-5.52101 8.56836,-11.95383 8.56836,-18.54688 0,-6.64664 -3.00819,-13.02456 -8.74023,-18.38476 L 340.81641,297.2832 c -5.50503,-5.4138 -12.14624,-8.30859 -19.1836,-8.30859 -6.9806,0 -13.67616,2.84206 -19.4082,8.25586 l -17.93359,16.88476 c -1.47558,-0.75042 -2.95228,-1.4477 -4.3711,-2.14453 -2.0431,-0.96483 -3.97135,-1.87696 -5.61719,-2.84179 -16.79884,-10.07718 -32.06674,-23.20934 -46.70898,-40.20118 -7.09411,-8.46911 -11.86034,-15.59771 -15.32227,-22.83398 4.65374,-4.02015 8.96631,-8.20055 13.16602,-12.2207 1.58908,-1.50086 3.1785,-3.05579 4.76758,-4.55664 11.9181,-11.25642 11.9181,-25.83538 0,-37.0918 l -15.49414,-14.63477 c -1.75934,-1.66166 -3.57476,-3.37653 -5.27735,-5.09179 -3.40517,-3.32333 -6.98098,-6.75263 -10.66992,-9.96875 -5.50503,-5.14579 -12.08787,-7.88086 -19.01172,-7.88086 z m 0.11328,14.47265 c 3.57544,0 6.46907,2.03669 8.28516,3.75196 l 0.16992,0.16211 c 3.46193,3.05531 6.75487,6.21682 10.2168,9.59375 1.75934,1.71526 3.57453,3.43035 5.39062,5.19921 l 15.49415,14.63282 c 6.0158,5.68181 6.0158,10.93537 0,16.61718 -1.64584,1.55446 -3.23503,3.10852 -4.88086,4.60938 -4.76725,4.60977 -9.30665,8.89912 -14.24414,13.08008 -0.11351,0.1072 -0.22841,0.16037 -0.28516,0.26758 -4.88075,4.60977 -3.97272,9.11265 -2.95117,12.16796 l 0.16992,0.48243 c 4.02945,9.21954 9.70559,17.90286 18.33203,28.24804 l 0.0566,0.0527 c 15.66379,18.22468 32.17881,32.42934 50.39648,43.31055 2.32687,1.39365 4.71036,2.51975 6.98047,3.59179 2.04311,0.96484 3.97331,1.87696 5.61914,2.8418 0.22702,0.1072 0.45463,0.26779 0.68165,0.375 1.92959,0.91123 3.74434,1.33984 5.61718,1.33984 4.71049,0 7.66216,-2.78798 8.62696,-3.69922 l 19.41015,-18.33203 c 1.9296,-1.82247 4.99293,-4.01953 8.56836,-4.01953 3.51868,0 6.41449,2.08964 8.17383,3.91211 l 0.11328,0.10742 31.26953,29.53516 c 5.84555,5.4674 5.84544,11.09553 0.0566,16.77734 -2.21336,2.25129 -4.48345,4.28778 -6.92383,6.53906 -3.68893,3.32333 -7.43444,6.80776 -10.95312,10.72071 -5.73204,5.78901 -12.48444,8.52344 -21.33789,8.52344 -0.85129,0 -1.76004,-0.001 -2.61133,-0.0547 -16.8556,-1.01844 -32.51973,-7.23637 -44.26758,-12.54297 -32.12212,-14.68695 -60.32864,-35.53711 -83.76758,-61.96289 -19.35272,-22.03042 -32.29164,-42.39992 -40.86132,-64.26953 -5.27802,-13.3469 -7.20677,-23.74552 -6.35547,-33.55469 0.56753,-6.27143 3.12154,-11.47096 7.83203,-15.91992 l 19.35156,-18.27735 c 2.78089,-2.46569 5.73256,-3.80664 8.62695,-3.80664 z" />
		<path
   d="m 256.056,112.706 c 26.2,4.4 50,16.8 69,35.8 19,19 31.3,42.8 35.8,69 1.1,6.6 6.8,11.2 13.3,11.2 0.8,0 1.5,-0.1 2.3,-0.2 7.4,-1.2 12.3,-8.2 11.1,-15.6 -5.4,-31.7 -20.4,-60.6 -43.3,-83.5 -22.9,-22.9 -51.8,-37.9 -83.5,-43.3 -7.4,-1.2 -14.3,3.7 -15.6,11 -1.3,7.3 3.5,14.4 10.9,15.6 z"
   id="path51" />
		<path
   d="m 473.256,209.006 c -8.9,-52.2 -33.5,-99.7 -71.3,-137.5 -37.8,-37.8 -85.3,-62.4 -137.5,-71.3 -7.3,-1.3 -14.2,3.7 -15.5,11 -1.2,7.4 3.7,14.3 11.1,15.6 46.6,7.9 89.1,30 122.9,63.7 33.8,33.8 55.8,76.3 63.7,122.9 1.1,6.6 6.8,11.2 13.3,11.2 0.8,0 1.5,-0.1 2.3,-0.2 7.3,-1.1 12.3,-8.1 11,-15.4 z"
   id="path53" />
	</g>
</g><g
     id="g59">
</g><g
     id="g61">
</g><g
     id="g63">
</g><g
     id="g65">
</g><g
     id="g67">
</g><g
     id="g69">
</g><g
     id="g71">
</g><g
     id="g73">
</g><g
     id="g75">
</g><g
     id="g77">
</g><g
     id="g79">
</g><g
     id="g81">
</g><g
     id="g83">
</g><g
     id="g85">
</g><g
     id="g87">
</g></g></svg>
